<?xml version="1.0" encoding="utf-8"?>
<!-- Generator: Adobe Illustrator 24.1.2, SVG Export Plug-In . SVG Version: 6.00 Build 0)  -->
<svg version="1.1" id="Layer_1" xmlns="http://www.w3.org/2000/svg" xmlns:xlink="http://www.w3.org/1999/xlink" x="0px" y="0px"
	 viewBox="0 0 140 42" style="enable-background:new 0 0 140 42;" xml:space="preserve">
<style type="text/css">
	.st0{fill-rule:evenodd;clip-rule:evenodd;fill:#FFFFFF;}
</style>
<g>
	<path class="st0" d="M0,21C0,14.3,5.4,9.3,12.1,9.3s12.1,5,12.1,11.7v10.3c0,1-0.7,1.8-1.8,1.8c-1.1,0-1.8-0.7-1.8-1.8v-3h-0.2
		c-1.4,2.4-4.2,4.5-8.4,4.5C5.3,32.8,0,27.8,0,21 M20.5,21c0-4.8-3.7-8.5-8.5-8.5S3.5,16.2,3.5,21s3.7,8.5,8.5,8.5
		C16.9,29.5,20.5,25.9,20.5,21 M33.5,40.4c-1-0.5-1.4-1.3-1.1-2.2c0.4-1,1.3-1.4,2.2-1c1.6,0.8,3.7,1.3,5.9,1.3
		c5.4,0,8.7-3.2,8.7-8.8v-1.5H49c-1.4,2.4-4.2,4.5-8.4,4.5c-6.5,0-11.8-5-11.8-11.8c0-6.7,5.4-11.8,12.1-11.8S53,14.1,53,20.8v8.6
		C53,37,48.2,42,40.4,42C38.1,42,35.7,41.5,33.5,40.4 M49.4,21c0-4.8-3.7-8.5-8.5-8.5s-8.5,3.7-8.5,8.5s3.7,8.5,8.5,8.5
		S49.4,25.9,49.4,21 M57.7,21c0-6.7,5.3-11.8,12.1-11.8c6.7,0,12.1,5.1,12.1,11.8s-5.3,11.8-12.1,11.8C63,32.8,57.7,27.8,57.7,21
		 M78.2,21c0-4.8-3.7-8.5-8.5-8.5s-8.5,3.7-8.5,8.5s3.7,8.5,8.5,8.5C74.6,29.5,78.2,25.9,78.2,21 M86.6,21c0-6.7,5.3-11.8,11.8-11.8
		c4.2,0,7,2.1,8.4,4.5h0.2v-12c0-1,0.7-1.8,1.8-1.8c1.1,0,1.8,0.7,1.8,1.8V21c0,6.7-5.3,11.7-12.1,11.7C91.9,32.8,86.6,27.8,86.6,21
		 M107.1,21c0-4.8-3.7-8.5-8.5-8.5s-8.5,3.7-8.5,8.5s3.7,8.5,8.5,8.5S107.1,25.9,107.1,21 M115.4,21c0-6.7,5.4-11.8,12.1-11.8
		s12.1,5,12.1,11.7v10.3c0,1-0.7,1.8-1.8,1.8s-1.8-0.7-1.8-1.8v-3h-0.2c-1.4,2.4-4.2,4.5-8.4,4.5C120.8,32.8,115.4,27.8,115.4,21
		 M136,21c0-4.8-3.7-8.5-8.5-8.5S119,16.2,119,21s3.7,8.5,8.5,8.5S136,25.9,136,21"/>
</g>
</svg>
