<?xml version="1.0" encoding="utf-8"?>
<!-- Generator: Adobe Illustrator 24.1.2, SVG Export Plug-In . SVG Version: 6.00 Build 0)  -->
<svg version="1.1" id="Layer_1" xmlns="http://www.w3.org/2000/svg" xmlns:xlink="http://www.w3.org/1999/xlink" x="0px" y="0px"
	 viewBox="0 0 2593.9 458.2" style="enable-background:new 0 0 2593.9 458.2;" xml:space="preserve">
<style type="text/css">
	.st0{fill:#FFFFFF;}
</style>
<g>
	<path class="st0" d="M2575,343.7c-10.4,0-18.9,8.5-18.9,18.9s8.4,18.9,18.9,18.9c10.4,0,18.9-8.5,18.9-18.9
		C2593.9,352.1,2585.4,343.7,2575,343.7z M2575,378.4c-8.8,0-15.9-7.1-15.9-15.9s7.1-15.9,15.9-15.9c8.8,0,15.9,7.1,15.9,15.9
		C2591,371.3,2583.8,378.4,2575,378.4z M2581.2,359.3c0-3.4-2.4-5.5-6-5.5h-6V371h2.9v-6.2h3.2l3.1,6.2h3.2l-3.4-6.9
		C2580,363.3,2581.2,361.6,2581.2,359.3z M2575,362.1h-2.9v-5.7h2.9c2,0,3.2,1,3.2,2.8C2578.2,361.1,2577,362.1,2575,362.1z
		 M303.3,152.9v-45.6h-69.9v271.3h69.9V215.9c0-29.5,18.9-43.9,48.4-43.9H390v-64.7h-32.7C331.6,107.3,309.4,120.6,303.3,152.9z
		 M455.4,0c-23.9,0-42.3,18.9-42.3,42.8c0,23.4,18.3,42.3,42.3,42.3s42.3-18.9,42.3-42.3C497.7,18.8,479.3,0,455.4,0z M420.5,378.5
		h69.8V107.3h-69.8V378.5z M822.6,242.9c0,77.4-62.8,140.2-140.2,140.2c-31.3,0-59.6-10.2-82.3-27.5v102.6h-69.8V107.3H600v23
		c22.7-17.3,51.1-27.5,82.3-27.5C759.8,102.7,822.6,165.5,822.6,242.9z M752.4,242.9c0-42.1-34.1-76.2-76.2-76.2
		S600,200.8,600,242.9s34.1,76.2,76.2,76.2C718.2,319.1,752.4,285,752.4,242.9z M2034.9,219.1l-40.7-11.2
		c-26.8-7-37.2-15.2-37.2-29.3c0-13.8,14.7-23.4,35.6-23.4c20,0,35.6,13.1,35.6,29.8v1.6h64.3V185c0-49.2-40.1-82.3-99.9-82.3
		c-59.2,0-102.2,33-102.2,78.6c0,35.4,23.5,62.1,64.5,73.2l39,10.6c29.6,8.2,40.6,17.3,40.6,33.6c0,17.2-15.9,28.7-39.6,28.7
		c-24.7,0-41.3-15.6-41.3-38.8V287h-68.2v1.6c0,55.6,44.8,94.5,109,94.5c61.8,0,106.7-38,106.7-90.3
		C2101.1,267.3,2089.6,233.7,2034.9,219.1z M1070,107.3h69.8v271.3H1070v-23c-22.7,17.3-51.1,27.5-82.3,27.5
		c-77.4,0-140.2-62.8-140.2-140.2s62.8-140.2,140.2-140.2c31.3,0,59.6,10.2,82.3,27.5V107.3z M1070,242.9L1070,242.9
		c0-42.1-34.1-76.2-76.2-76.2c-42.1,0-76.2,34.1-76.2,76.2s34.1,76.2,76.2,76.2S1070,285,1070,242.9z M1391.6,10.7h69.8v367.9h-69.8
		v-23c-22.7,17.3-51.1,27.5-82.3,27.5c-77.4,0-140.2-62.8-140.2-140.2s62.8-140.2,140.2-140.2c31.3,0,59.6,10.2,82.3,27.5V10.7z
		 M1391.6,242.9c0-42.1-34.1-76.2-76.2-76.2s-76.2,34.1-76.2,76.2s34.1,76.2,76.2,76.2S1391.6,285,1391.6,242.9z M1785.3,378.5h69.8
		V107.3h-69.8V378.5z M1820.1,0c-23.9,0-42.3,18.9-42.3,42.8c0,23.4,18.3,42.3,42.3,42.3s42.3-18.9,42.3-42.3
		C1862.4,18.8,1844.1,0,1820.1,0z M2402.6,242.9c0,77.4-62.8,140.2-140.2,140.2s-140.2-62.8-140.2-140.2s62.8-140.2,140.2-140.2
		S2402.6,165.5,2402.6,242.9z M2338.6,242.9c0-42.1-34.1-76.2-76.2-76.2s-76.2,34.1-76.2,76.2s34.1,76.2,76.2,76.2
		C2304.4,319.1,2338.6,285,2338.6,242.9z M267.6,10.7H0v62.2h99.1v305.6h69.5V72.9h99.1L267.6,10.7L267.6,10.7z M1620.8,304.2
		l-62.1-197h-73.3l93.1,271.3h83.9l93.6-271.3h-73.3L1620.8,304.2z M2504.8,152.9v-45.6h-69.9v271.3h69.9V215.9
		c0-29.5,18.9-43.9,48.4-43.9h38.3v-64.7h-32.7C2533.2,107.3,2511,120.6,2504.8,152.9z"/>
</g>
</svg>
