<?xml version="1.0" encoding="utf-8"?>
<!-- Generator: Adobe Illustrator 24.1.2, SVG Export Plug-In . SVG Version: 6.00 Build 0)  -->
<svg version="1.1" id="Layer_1" xmlns="http://www.w3.org/2000/svg" xmlns:xlink="http://www.w3.org/1999/xlink" x="0px" y="0px"
	 viewBox="0 0 2593.9 713.5" style="enable-background:new 0 0 2593.9 713.5;" xml:space="preserve">
<style type="text/css">
	.st0{fill:#FFFFFF;}
</style>
<g>
	<path class="st0" d="M2575,476.8c-10.4,0-18.9,8.5-18.9,18.9s8.4,18.9,18.9,18.9c10.4,0,18.9-8.5,18.9-18.9
		C2593.9,485.2,2585.4,476.8,2575,476.8z M2575,511.5c-8.8,0-15.9-7.1-15.9-15.9s7.1-15.9,15.9-15.9c8.8,0,15.9,7.1,15.9,15.9
		C2591,504.4,2583.8,511.5,2575,511.5z M2581.2,492.4c0-3.4-2.4-5.5-6-5.5h-6v17.2h2.9v-6.2h3.2l3.1,6.2h3.2l-3.4-6.9
		C2580,496.4,2581.2,494.7,2581.2,492.4z M2575,495.2h-2.9v-5.7h2.9c2,0,3.2,1,3.2,2.8C2578.2,494.2,2577,495.2,2575,495.2z
		 M303.3,286v-45.6h-69.9v271.3h69.9V349c0-29.5,18.9-43.9,48.4-43.9H390v-64.7h-32.7C331.6,240.4,309.4,253.7,303.3,286z
		 M455.4,133.1c-23.9,0-42.3,18.9-42.3,42.8c0,23.4,18.3,42.3,42.3,42.3s42.3-18.9,42.3-42.3C497.7,151.9,479.3,133.1,455.4,133.1z
		 M420.5,511.6h69.8V240.4h-69.8V511.6z M822.6,376c0,77.4-62.8,140.2-140.2,140.2c-31.3,0-59.6-10.2-82.3-27.5v102.6h-69.8V240.4
		H600v23c22.7-17.3,51.1-27.5,82.3-27.5C759.8,235.8,822.6,298.6,822.6,376z M752.4,376c0-42.1-34.1-76.2-76.2-76.2
		S600,333.9,600,376s34.1,76.2,76.2,76.2C718.2,452.2,752.4,418.1,752.4,376z M2034.9,352.2l-40.7-11.2c-26.8-7-37.2-15.2-37.2-29.3
		c0-13.8,14.7-23.4,35.6-23.4c20,0,35.6,13.1,35.6,29.8v1.6h64.3v-1.6c0-49.2-40.1-82.3-99.9-82.3c-59.2,0-102.2,33-102.2,78.6
		c0,35.4,23.5,62.1,64.5,73.2l39,10.6c29.6,8.2,40.6,17.3,40.6,33.6c0,17.2-15.9,28.7-39.6,28.7c-24.7,0-41.3-15.6-41.3-38.8v-1.6
		h-68.2v1.6c0,55.6,44.8,94.5,109,94.5c61.8,0,106.7-38,106.7-90.3C2101.1,400.4,2089.6,366.8,2034.9,352.2z M1070,240.4h69.8v271.3
		H1070v-23c-22.7,17.3-51.1,27.5-82.3,27.5c-77.4,0-140.2-62.8-140.2-140.2s62.8-140.2,140.2-140.2c31.3,0,59.6,10.2,82.3,27.5
		V240.4z M1070,376L1070,376c0-42.1-34.1-76.2-76.2-76.2c-42.1,0-76.2,34.1-76.2,76.2s34.1,76.2,76.2,76.2S1070,418.1,1070,376z
		 M1391.6,143.8h69.8v367.9h-69.8v-23c-22.7,17.3-51.1,27.5-82.3,27.5c-77.4,0-140.2-62.8-140.2-140.2s62.8-140.2,140.2-140.2
		c31.3,0,59.6,10.2,82.3,27.5V143.8z M1391.6,376c0-42.1-34.1-76.2-76.2-76.2s-76.2,34.1-76.2,76.2s34.1,76.2,76.2,76.2
		S1391.6,418.1,1391.6,376z M1785.3,511.6h69.8V240.4h-69.8V511.6z M1820.1,133.1c-23.9,0-42.3,18.9-42.3,42.8
		c0,23.4,18.3,42.3,42.3,42.3s42.3-18.9,42.3-42.3C1862.4,151.9,1844.1,133.1,1820.1,133.1z M2402.6,376
		c0,77.4-62.8,140.2-140.2,140.2s-140.2-62.8-140.2-140.2s62.8-140.2,140.2-140.2S2402.6,298.6,2402.6,376z M2338.6,376
		c0-42.1-34.1-76.2-76.2-76.2s-76.2,34.1-76.2,76.2s34.1,76.2,76.2,76.2C2304.4,452.2,2338.6,418.1,2338.6,376z M267.6,143.8H0V206
		h99.1v305.6h69.5V206h99.1L267.6,143.8L267.6,143.8z M1620.8,437.3l-62.1-197h-73.3l93.1,271.3h83.9l93.6-271.3h-73.3L1620.8,437.3
		z M2504.8,286v-45.6h-69.9v271.3h69.9V349c0-29.5,18.9-43.9,48.4-43.9h38.3v-64.7h-32.7C2533.2,240.4,2511,253.7,2504.8,286z"/>
</g>
</svg>
